<?xml version="1.0" encoding="UTF-8" standalone="no"?>
<svg
   xmlns:dc="http://purl.org/dc/elements/1.1/"
   xmlns:cc="http://creativecommons.org/ns#"
   xmlns:rdf="http://www.w3.org/1999/02/22-rdf-syntax-ns#"
   xmlns:svg="http://www.w3.org/2000/svg"
   xmlns="http://www.w3.org/2000/svg"
   xmlns:sodipodi="http://sodipodi.sourceforge.net/DTD/sodipodi-0.dtd"
   xmlns:inkscape="http://www.inkscape.org/namespaces/inkscape"
   version="1.0"
   width="1280.000000pt"
   height="980.000000pt"
   viewBox="0 0 1280.000000 980.000000"
   preserveAspectRatio="xMidYMid meet"
   id="svg845"
   sodipodi:docname="beans.svg"
   inkscape:version="1.0.2 (e86c8708, 2021-01-15)">
  <defs
     id="defs849" />
  <sodipodi:namedview
     pagecolor="#ffffff"
     bordercolor="#666666"
     borderopacity="1"
     objecttolerance="10"
     gridtolerance="10"
     guidetolerance="10"
     inkscape:pageopacity="0"
     inkscape:pageshadow="2"
     inkscape:window-width="1440"
     inkscape:window-height="900"
     id="namedview847"
     showgrid="false"
     inkscape:zoom="0.4171875"
     inkscape:cx="853.33333"
     inkscape:cy="653.33333"
     inkscape:window-x="0"
     inkscape:window-y="0"
     inkscape:window-maximized="0"
     inkscape:current-layer="g855" />
  <metadata
     id="metadata833">
Created by potrace 1.15, written by Peter Selinger 2001-2017
<rdf:RDF>
  <cc:Work
     rdf:about="">
    <dc:format>image/svg+xml</dc:format>
    <dc:type
       rdf:resource="http://purl.org/dc/dcmitype/StillImage" />
  </cc:Work>
</rdf:RDF>
</metadata>
  <g
     transform="translate(0.000000,980.000000) scale(0.100000,-0.100000)"
     fill="#000000"
     stroke="none"
     id="g843">
    <g
       transform="matrix(0.1716868,0,0,0.14655333,6198.9984,1671.3911)"
       fill="#000000"
       stroke="none"
       id="g855"
       style="fill:#6c63ff;fill-opacity:1" />
    <path
       d="m 2691.9938,1309.1911 c -48.7376,-12.5392 -89.5131,-42.2154 -131.0124,-95.2981 -50.6678,-64.786 -79.8621,-129.154 -104.2309,-228.2139 -26.5402,-106.5835 -36.915,-280.8787 -21.7147,-357.368 13.5114,-68.5478 36.4325,-130.408 67.3157,-180.5649 l 21.2322,-34.6918 121.1201,-28.4223 121.3614,-28.4223 13.0289,-16.7189 c 28.7117,-36.3638 80.3446,-92.7903 103.507,-112.4351 62.9728,-53.5007 108.815,-49.3209 157.3113,14.2112 34.2611,44.7232 58.1473,124.9743 69.7285,232.8116 5.7906,53.0827 5.7906,150.8887 0.2413,204.3894 -6.0319,56.0086 -23.4037,143.3652 -41.2581,206.8973 -14.7177,52.2467 -51.3916,152.5606 -74.7952,204.8073 -33.0547,73.5635 -112.4342,165.0999 -171.7879,198.1198 -41.258,22.5706 -90.9607,30.5121 -130.0472,20.8987 z"
       id="path835"
       style="fill:#ff7f2a;stroke-width:0.317564" />
    <path
       d="m 3436.2096,3028.1446 c -66.5479,-10.9632 -128.5994,-30.697 -163.3721,-51.8013 -46.1639,-28.2304 -88.1311,-81.6763 -109.4144,-139.7815 l -7.7939,-20.8302 39.569,-132.1072 39.569,-132.1072 -5.3957,-23.297 c -32.9742,-147.7298 -32.075,-197.6126 3.5971,-247.2214 14.3888,-20.0079 28.7775,-32.0675 56.356,-47.416 27.2786,-14.8004 51.5596,-20.8303 93.227,-22.4747 81.8359,-3.5631 171.166,21.6524 245.2081,68.7944 33.274,21.1043 81.5362,62.4905 111.8125,95.6544 24.8805,27.4081 74.9413,95.1062 91.4284,124.1588 40.4684,70.1649 58.754,186.9236 41.6674,263.3922 -14.9883,66.8759 -43.466,116.4846 -94.1263,164.4489 -30.5761,28.7785 -59.6533,47.9642 -106.117,69.0685 -39.569,18.0894 -68.6463,26.86 -104.9179,31.7935 -36.5713,4.9334 -99.5221,4.9334 -131.2972,-0.2742 z"
       id="path837"
       style="fill:#ff7f2a;stroke-width:0.286636" />
    <path
       d="m 4336.5283,3213.7271 c -75.8313,-7.6996 -158.1549,-51.7419 -249.3082,-132.7427 -67.521,-60.0576 -127.5107,-164.4655 -148.2864,-258.4018 -9.3491,-41.8863 -11.1669,-104.0999 -3.8954,-144.7543 10.1281,-58.5176 27.0083,-97.3241 60.5091,-139.8264 83.3625,-105.9478 218.4044,-171.2412 313.1934,-151.53 39.4738,8.0077 66.7419,24.331 92.1921,54.5138 20.7757,24.639 26.489,42.8104 48.5632,158.3058 14.2832,73.609 14.5429,74.533 52.978,108.4117 42.3304,37.2665 79.2072,65.6014 88.0369,67.7573 4.1551,0.924 9.6087,5.5438 12.4654,10.1636 2.5969,4.3118 13.2445,19.7112 23.3726,33.8786 33.2411,46.8142 42.3305,72.9932 42.0708,121.6552 -0.2597,72.9932 -20.516,127.507 -65.7031,178.633 -43.1095,48.354 -88.5564,73.609 -158.1549,87.4685 -36.8768,7.3917 -76.87,9.5476 -108.0335,6.4677 z"
       id="path841"
       style="fill:#ff7f2a;stroke-width:0.282813" />
    <path
       d="m 4802.5018,2327.0209 c -66.5479,-10.9632 -128.5994,-30.697 -163.3721,-51.8013 -46.1639,-28.2304 -88.1311,-81.6763 -109.4144,-139.7815 l -7.7939,-20.8302 39.569,-132.1072 39.569,-132.1072 -5.3957,-23.297 c -32.9742,-147.7298 -32.075,-197.6126 3.5971,-247.2214 14.3888,-20.0079 28.7775,-32.0675 56.356,-47.416 27.2786,-14.8004 51.5596,-20.8303 93.227,-22.4747 81.8359,-3.5631 171.166,21.6524 245.2081,68.7944 33.274,21.1043 81.5362,62.4905 111.8125,95.6544 24.8805,27.4081 74.9413,95.1062 91.4284,124.1588 40.4684,70.1649 58.754,186.9236 41.6674,263.3922 -14.9883,66.8759 -43.466,116.4846 -94.1263,164.4489 -30.5761,28.7785 -59.6533,47.9642 -106.117,69.0685 -39.569,18.0894 -68.6463,26.86 -104.9179,31.7935 -36.5713,4.9334 -99.5221,4.9334 -131.2972,-0.2742 z"
       id="path1448"
       style="fill:#ff7f2a;stroke-width:0.286636" />
    <path
       d="m 3321.2073,1704.6967 c -48.7376,-12.5392 -89.5131,-42.2154 -131.0124,-95.2981 -50.6678,-64.786 -79.8621,-129.154 -104.2309,-228.2139 -26.5402,-106.5835 -36.915,-280.8787 -21.7147,-357.368 13.5114,-68.54778 36.4325,-130.40798 67.3157,-180.56488 l 21.2322,-34.6918 121.1201,-28.4223 121.3614,-28.4223 13.0289,-16.7189 c 28.7117,-36.3638 80.3446,-92.7903 103.507,-112.4351 62.9728,-53.5007 108.815,-49.3209 157.3113,14.2112 34.2611,44.7232 58.1473,124.9743 69.7285,232.8116 5.7906,53.0827 5.7906,150.88868 0.2413,204.38938 -6.0319,56.0086 -23.4037,143.3652 -41.2581,206.8973 -14.7177,52.2467 -51.3916,152.5606 -74.7952,204.8073 -33.0547,73.5635 -112.4342,165.0999 -171.7879,198.1198 -41.258,22.5706 -90.9607,30.5121 -130.0472,20.8987 z"
       id="path1450"
       style="fill:#ff7f2a;stroke-width:0.317564" />
    <path
       d="m 4831.3196,1417.0563 c -48.7376,-12.5392 -89.5131,-42.2154 -131.0124,-95.2981 -50.6678,-64.786 -79.8621,-129.154 -104.2309,-228.2139 -26.5402,-106.58355 -36.915,-280.87875 -21.7147,-357.36805 13.5114,-68.5478 36.4325,-130.408 67.3157,-180.5649 l 21.2322,-34.6918 121.1201,-28.4223 121.3614,-28.4223 13.0289,-16.7189 c 28.7117,-36.3638 80.3446,-92.7903 103.507,-112.4351 62.9728,-53.5007 108.815,-49.3209 157.3113,14.2112 34.2611,44.7232 58.1473,124.9743 69.7285,232.8116 5.7906,53.0827 5.7906,150.8887 0.2413,204.3894 -6.0319,56.0086 -23.4037,143.3652 -41.2581,206.8973 -14.7177,52.24675 -51.3916,152.56065 -74.7952,204.80735 -33.0547,73.5635 -112.4342,165.0999 -171.7879,198.1198 -41.258,22.5706 -90.9607,30.5121 -130.0472,20.8987 z"
       id="path1452"
       style="fill:#ff7f2a;stroke-width:0.317564" />
    <path
       d="m 3849.6927,3855.1109 c -66.5479,-10.9632 -128.5994,-30.697 -163.3721,-51.8013 -46.1639,-28.2304 -88.1311,-81.6763 -109.4144,-139.7815 l -7.7939,-20.8302 39.569,-132.1072 39.569,-132.1072 -5.3957,-23.297 c -32.9742,-147.7298 -32.075,-197.6126 3.5971,-247.2214 14.3888,-20.0079 28.7775,-32.0675 56.356,-47.416 27.2786,-14.8004 51.5596,-20.8303 93.227,-22.4747 81.8359,-3.5631 171.166,21.6524 245.2081,68.7944 33.274,21.1043 81.5362,62.4905 111.8125,95.6544 24.8805,27.4081 74.9413,95.1062 91.4284,124.1588 40.4684,70.1649 58.754,186.9236 41.6674,263.3922 -14.9883,66.8759 -43.466,116.4846 -94.1263,164.4489 -30.5761,28.7785 -59.6533,47.9642 -106.117,69.0685 -39.569,18.0894 -68.6463,26.86 -104.9179,31.7935 -36.5713,4.9334 -99.5221,4.9334 -131.2972,-0.2742 z"
       id="path1454"
       style="fill:#ff7f2a;stroke-width:0.286636" />
    <path
       d="m 3975.5355,2327.021 c -66.5479,-10.9632 -128.5994,-30.697 -163.3721,-51.8013 -46.1639,-28.2304 -88.1311,-81.6763 -109.4144,-139.7815 l -7.7939,-20.8302 39.569,-132.1072 39.569,-132.1072 -5.3957,-23.297 c -32.9742,-147.7298 -32.075,-197.6126 3.5971,-247.2214 14.3888,-20.0079 28.7775,-32.0675 56.356,-47.416 27.2786,-14.8004 51.5596,-20.8303 93.227,-22.4747 81.8359,-3.5631 171.166,21.6524 245.2081,68.7944 33.274,21.1043 81.5362,62.4905 111.8125,95.6544 24.8805,27.4081 74.9413,95.1062 91.4284,124.1588 40.4684,70.1649 58.754,186.9236 41.6674,263.3922 -14.9883,66.8759 -43.466,116.4846 -94.1263,164.4489 -30.5761,28.7785 -59.6533,47.9642 -106.117,69.0685 -39.569,18.0894 -68.6463,26.86 -104.9179,31.7935 -36.5713,4.9334 -99.5221,4.9334 -131.2972,-0.2742 z"
       id="path1456"
       style="fill:#ff7f2a;stroke-width:0.286636" />
    <path
       d="m 2898.326,2350.8056 c -75.8313,-7.6996 -158.1549,-51.7419 -249.3082,-132.7427 -67.521,-60.0576 -127.5107,-164.4655 -148.2864,-258.4018 -9.3491,-41.8863 -11.1669,-104.0999 -3.8954,-144.7543 10.1281,-58.5176 27.0083,-97.3241 60.5091,-139.8264 83.3625,-105.9478 218.4044,-171.2412 313.1934,-151.53 39.4738,8.0077 66.7419,24.331 92.1921,54.5138 20.7757,24.639 26.489,42.8104 48.5632,158.3058 14.2832,73.609 14.5429,74.533 52.978,108.4117 42.3304,37.2665 79.2072,65.6014 88.0369,67.7573 4.1551,0.924 9.6087,5.5438 12.4654,10.1636 2.5969,4.3118 13.2445,19.7112 23.3726,33.8786 33.2411,46.8142 42.3305,72.9932 42.0708,121.6552 -0.2597,72.9932 -20.516,127.507 -65.7031,178.633 -43.1095,48.354 -88.5564,73.609 -158.1549,87.4685 -36.8768,7.3917 -76.87,9.5476 -108.0335,6.4677 z"
       id="path1458"
       style="fill:#ff7f2a;stroke-width:0.282813" />
    <path
       d="m 4210.6856,1505.8619 c -75.8313,-7.6996 -158.1549,-51.7419 -249.3082,-132.7427 -67.521,-60.0576 -127.5107,-164.4655 -148.2864,-258.4018 -9.3491,-41.8863 -11.1669,-104.0999 -3.8954,-144.7543 10.1281,-58.5176 27.0083,-97.3241 60.5091,-139.8264 83.3625,-105.9478 218.4044,-171.2412 313.1934,-151.53 39.4738,8.0077 66.7419,24.331 92.1921,54.5138 20.7757,24.639 26.489,42.8104 48.5632,158.3058 14.2832,73.609 14.5429,74.533 52.978,108.4117 42.3304,37.2665 79.2072,65.6014 88.0369,67.7573 4.1551,0.924 9.6087,5.5438 12.4654,10.1636 2.5969,4.3118 13.2445,19.7112 23.3726,33.8786 33.2411,46.8142 42.3305,72.9932 42.0708,121.6552 -0.2597,72.9932 -20.516,127.507 -65.7031,178.633 -43.1095,48.354 -88.5564,73.609 -158.1549,87.4685 -36.8768,7.3917 -76.87,9.5476 -108.0335,6.4677 z"
       id="path1460"
       style="fill:#ff7f2a;stroke-width:0.282813" />
  </g>
</svg>
